<svg width="200" height="75" viewBox="0 0 200 75" fill="none" xmlns="http://www.w3.org/2000/svg" >
   <g filter="url(#filter0_b_1153_487)">
   <path d="M19 0H190L181 75H10L19 0Z" fill="#FFA800" fill-opacity="0.05"/>
   <path d="M10.5636 74.5L19.4436 0.5H189.436L180.556 74.5H10.5636Z" stroke="url(#paint0_radial_1153_487)"/>
   </g>
   <path d="M66.6883 38.9337V37.6336L74.2018 32.9592V34.6034L68.2943 38.2836L74.2018 41.9639V43.6081L66.6883 38.9337ZM82.594 44.239C81.568 44.239 80.7268 44 80.0704 43.522C79.4203 43.0441 78.936 42.3144 78.6174 41.333C78.3051 40.3452 78.149 39.0802 78.149 37.538C78.149 35.9958 78.3051 34.734 78.6174 33.7526C78.936 32.7712 79.4203 32.0415 80.0704 31.5636C80.7268 31.0856 81.568 30.8466 82.594 30.8466C83.8558 30.8466 84.8372 31.2099 85.5382 31.9364C86.2456 32.6629 86.7012 33.7813 86.9051 35.2916H85.261C85.1017 34.2847 84.8021 33.5359 84.3624 33.0452C83.9291 32.5545 83.3396 32.3092 82.594 32.3092C81.6253 32.3092 80.9116 32.7298 80.4527 33.571C80.0003 34.4122 79.774 35.7345 79.774 37.538C79.774 39.3415 80.0003 40.6639 80.4527 41.5051C80.9116 42.3463 81.6253 42.7669 82.594 42.7669C83.3396 42.7669 83.9291 42.5247 84.3624 42.0404C84.8021 41.5497 85.1017 40.8009 85.261 39.794H86.9051C86.7012 41.3043 86.2456 42.4227 85.5382 43.1492C84.8372 43.8757 83.8558 44.239 82.594 44.239ZM94.0928 44.239C92.7864 44.239 91.7636 43.9267 91.0244 43.3022C90.2915 42.6777 89.9059 41.795 89.8677 40.6543H91.4736C91.5119 41.3298 91.7572 41.8524 92.2097 42.222C92.6622 42.5852 93.2899 42.7669 94.0928 42.7669C94.9149 42.7669 95.5554 42.5725 96.0142 42.1838C96.4731 41.7887 96.7025 41.2406 96.7025 40.5396C96.7025 39.9533 96.5432 39.4913 96.2245 39.1535C95.9123 38.8158 95.4056 38.564 94.7046 38.3984L93.3377 38.0638C92.2416 37.8025 91.4386 37.3819 90.9288 36.802C90.4189 36.2157 90.164 35.4255 90.164 34.4313C90.164 33.6984 90.3202 33.0644 90.6324 32.529C90.9447 31.9874 91.394 31.5731 91.9803 31.2864C92.5666 30.9932 93.258 30.8466 94.0546 30.8466C94.8257 30.8466 95.5012 30.9837 96.0811 31.2577C96.6611 31.5253 97.1103 31.9109 97.429 32.4143C97.754 32.9178 97.9292 33.5168 97.9547 34.2115H96.3488C96.2978 33.5997 96.0716 33.1313 95.6701 32.8063C95.275 32.4749 94.7301 32.3092 94.0355 32.3092C93.3217 32.3092 92.7641 32.4972 92.3626 32.8732C91.9675 33.2428 91.77 33.7622 91.77 34.4313C91.77 35.024 91.9261 35.486 92.2384 35.8174C92.5506 36.1488 93.0605 36.3973 93.7678 36.563L95.1348 36.8976C96.2309 37.1589 97.0339 37.5826 97.5437 38.1689C98.0535 38.7489 98.3084 39.5391 98.3084 40.5396C98.3084 41.3107 98.1395 41.9735 97.8018 42.5279C97.4704 43.0823 96.9893 43.5061 96.3584 43.7993C95.7275 44.0924 94.9723 44.239 94.0928 44.239ZM105.85 44.239C104.543 44.239 103.521 43.9267 102.781 43.3022C102.048 42.6777 101.663 41.795 101.625 40.6543H103.231C103.269 41.3298 103.514 41.8524 103.967 42.222C104.419 42.5852 105.047 42.7669 105.85 42.7669C106.672 42.7669 107.312 42.5725 107.771 42.1838C108.23 41.7887 108.459 41.2406 108.459 40.5396C108.459 39.9533 108.3 39.4913 107.981 39.1535C107.669 38.8158 107.163 38.564 106.462 38.3984L105.095 38.0638C103.999 37.8025 103.196 37.3819 102.686 36.802C102.176 36.2157 101.921 35.4255 101.921 34.4313C101.921 33.6984 102.077 33.0644 102.389 32.529C102.702 31.9874 103.151 31.5731 103.737 31.2864C104.324 30.9932 105.015 30.8466 105.812 30.8466C106.583 30.8466 107.258 30.9837 107.838 31.2577C108.418 31.5253 108.867 31.9109 109.186 32.4143C109.511 32.9178 109.686 33.5168 109.712 34.2115H108.106C108.055 33.5997 107.829 33.1313 107.427 32.8063C107.032 32.4749 106.487 32.3092 105.792 32.3092C105.079 32.3092 104.521 32.4972 104.12 32.8732C103.724 33.2428 103.527 33.7622 103.527 34.4313C103.527 35.024 103.683 35.486 103.995 35.8174C104.308 36.1488 104.817 36.3973 105.525 36.563L106.892 36.8976C107.988 37.1589 108.791 37.5826 109.301 38.1689C109.81 38.7489 110.065 39.5391 110.065 40.5396C110.065 41.3107 109.897 41.9735 109.559 42.5279C109.227 43.0823 108.746 43.5061 108.115 43.7993C107.484 44.0924 106.729 44.239 105.85 44.239ZM120.408 30.101H121.956L114.854 44.975H113.305L120.408 30.101ZM125.789 41.9639L131.696 38.2836L125.789 34.6034V32.9592L133.302 37.6336V38.9337L125.789 43.6081V41.9639Z" fill="white"/>
   <defs>
   <filter id="filter0_b_1153_487" x="-11.096" y="-21.096" width="222.192" height="117.192" filterUnits="userSpaceOnUse" color-interpolation-filters="sRGB">
   <feFlood flood-opacity="0" result="BackgroundImageFix"/>
   <feGaussianBlur in="BackgroundImageFix" stdDeviation="10.548"/>
   <feComposite in2="SourceAlpha" operator="in" result="effect1_backgroundBlur_1153_487"/>
   <feBlend mode="normal" in="SourceGraphic" in2="effect1_backgroundBlur_1153_487" result="shape"/>
   </filter>
   <radialGradient id="paint0_radial_1153_487" cx="0" cy="0" r="1" gradientUnits="userSpaceOnUse" gradientTransform="translate(131.5 6.01852) rotate(90) scale(99.0616 240.349)">
   <stop stop-color="#FFA800"/>
   <stop offset="1" stop-color="#FFA800" stop-opacity="0"/>
   </radialGradient>
   </defs>
   </svg>