<svg width="215" height="72" viewBox="0 0 215 72" fill="none" xmlns="http://www.w3.org/2000/svg">
<path d="M0.313 38.264L27.154 19.772L34.054 23.222V34.745L19.357 45.095L34.054 52.616V64.484L0.313 47.234V38.264ZM11.077 41.783L26.464 30.95V21.083L1.003 38.609V46.82L26.464 59.861V49.58L11.077 41.783ZM181.096 63.311V51.443L195.793 41.369L181.096 33.572V22.118L214.837 39.437V48.407L187.996 66.761L181.096 63.311ZM181.786 23.291V33.158L197.173 41.3L181.786 51.788V62L207.247 44.612V36.401L181.786 23.291Z" fill="#7000FF"/>
<path d="M67.7017 61.172L65.1487 52.961L59.6977 53.444L56.3167 65.519L44.5867 66.554L37.6867 63.104L52.7977 9.215L64.1827 8.249L71.0827 11.699L86.4697 63.656L74.6017 64.622L67.7017 61.172ZM53.3497 9.905L38.7217 62.276L48.7957 61.448L52.2457 49.373L64.5277 48.269L68.1847 60.482L78.6037 59.585L63.6307 9.008L53.3497 9.905ZM54.6607 39.299C55.5347 36.447 56.2477 33.733 56.7997 31.157C57.3977 28.581 57.9037 26.005 58.3177 23.429H58.5937C58.9617 25.959 59.4217 28.443 59.9737 30.881C60.5717 33.273 61.2847 35.849 62.1127 38.609L54.6607 39.299Z" fill="#00FF94"/>
<path d="M86.7387 63.035V49.511L99.1587 48.407L106.059 51.857V65.45L93.6387 66.485L86.7387 63.035ZM87.4287 50.132V62.276L98.4687 61.379V49.166L87.4287 50.132Z" fill="white"/>
<path d="M107.598 49.787C110.358 50.385 112.773 50.684 114.843 50.684H115.602C116.66 50.592 117.373 50.178 117.741 49.442C118.155 48.706 118.362 47.694 118.362 46.406V9.353L130.161 8.318L137.061 11.768V51.995C137.061 61.149 133.174 66.071 125.4 66.761C123.974 66.899 122.617 66.968 121.329 66.968C120.179 66.968 119.098 66.922 118.086 66.83C117.074 66.738 116.177 66.623 115.395 66.485L108.426 63.035L107.598 49.787ZM119.052 9.974V46.406C119.052 47.924 118.799 49.12 118.293 49.994C117.787 50.822 116.913 51.282 115.671 51.374H114.843C113.923 51.374 112.842 51.305 111.6 51.167C110.358 51.029 109.277 50.868 108.357 50.684L109.116 62.414C109.76 62.506 110.519 62.598 111.393 62.69C112.267 62.782 113.256 62.828 114.36 62.828C115.648 62.828 117.005 62.759 118.431 62.621C125.791 62.023 129.471 57.331 129.471 48.545V9.077L119.052 9.974Z" fill="#FF1FCE"/>
<path d="M137.35 67.865L164.467 1.28L174.127 0.451999L181.027 3.902L153.91 70.487L144.25 71.315L137.35 67.865ZM164.881 1.97L138.454 67.037L146.527 66.347L173.023 1.28L164.881 1.97Z" fill="#FFE500"/>
</svg>
