<svg width="44" height="46" viewBox="0 0 44 46" fill="none" xmlns="http://www.w3.org/2000/svg">
<g filter="url(#filter0_d_107_627)">
<path d="M13.6667 23.3333C14.7778 25.4762 18 28.3333 22 28.3333C26 28.3333 29.2223 25.4762 30.3334 23.3333M38.6667 20C38.6667 29.2047 31.2048 36.6666 22 36.6666C12.7953 36.6666 5.33337 29.2047 5.33337 20C5.33337 10.7952 12.7953 3.33331 22 3.33331C31.2048 3.33331 38.6667 10.7952 38.6667 20Z" stroke="#2D264B" stroke-width="1.5" stroke-linecap="round"/>
<path d="M18.6667 13.3333C18.6667 14.2538 17.9205 15 17 15C16.0796 15 15.3334 14.2538 15.3334 13.3333C15.3334 12.4128 16.0796 11.6666 17 11.6666C17.9205 11.6666 18.6667 12.4128 18.6667 13.3333Z" fill="#2D264B"/>
<path d="M28.6667 13.3333C28.6667 14.2538 27.9205 15 27 15C26.0796 15 25.3334 14.2538 25.3334 13.3333C25.3334 12.4128 26.0796 11.6666 27 11.6666C27.9205 11.6666 28.6667 12.4128 28.6667 13.3333Z" fill="#2D264B"/>
</g>
<defs>
<filter id="filter0_d_107_627" x="-2" y="0" width="48" height="48" filterUnits="userSpaceOnUse" color-interpolation-filters="sRGB">
<feFlood flood-opacity="0" result="BackgroundImageFix"/>
<feColorMatrix in="SourceAlpha" type="matrix" values="0 0 0 0 0 0 0 0 0 0 0 0 0 0 0 0 0 0 127 0" result="hardAlpha"/>
<feOffset dy="4"/>
<feGaussianBlur stdDeviation="2"/>
<feComposite in2="hardAlpha" operator="out"/>
<feColorMatrix type="matrix" values="0 0 0 0 0 0 0 0 0 0 0 0 0 0 0 0 0 0 0.25 0"/>
<feBlend mode="normal" in2="BackgroundImageFix" result="effect1_dropShadow_107_627"/>
<feBlend mode="normal" in="SourceGraphic" in2="effect1_dropShadow_107_627" result="shape"/>
</filter>
</defs>
</svg>
